<?xml version="1.0" encoding="UTF-8"?>
<svg id="Layer_1" data-name="Layer 1" xmlns="http://www.w3.org/2000/svg" viewBox="0 0 32 32">
  <defs>
    <style>
      .cls-1 {
        fill: #231f20;
      }

      .cls-2 {
        fill: none;
      }
    </style>
  </defs>
  <g>
    <path class="cls-1" d="M17.09,23.33l-1.03-.07-1.56-3.55-2.5,4.4-1.09-4.39-2.8,4.73-1.95-4.74-1.75,4.64-3.49-4.9,1.78,10.86,14.89-2.73c-.68-1.31-.84-2.84-.5-4.26Z"/>
    <path class="cls-1" d="M29.7,4.17l-10.03-2.48,4.38,3.99-4.42,1.63,4.32,2.33-4.56,2.74,4.03,1.4-4.24,2.44,3.23,1.86v2.03c-1.13-.02-2.29.42-3.19,1.33-1.82,1.84-1.89,4.92-.17,6.86s4.59,2.03,6.41.18c1.7-1.73,1.88-4.54.47-6.49l3.77-17.83ZM22.45,27.11c-1.23,0-2.23-1-2.23-2.23s1-2.23,2.23-2.23,2.23,1,2.23,2.23-1,2.23-2.23,2.23Z"/>
  </g>
  <path class="cls-2" d="M74.52-38.3c6.75,17.87-2.26,37.83-20.13,44.59-14.3,5.4-30.27-1.81-35.67-16.1-4.32-11.44,1.45-24.21,12.88-28.54,9.15-3.46,19.37,1.16,22.83,10.31,2.77,7.32-.93,15.5-8.25,18.26-5.86,2.21-12.4-.74-14.61-6.6-1.77-4.68.59-9.92,5.28-11.69,3.75-1.42,7.93.47,9.35,4.22,1.13,3-.38,6.35-3.38,7.48-2.4.91-5.08-.3-5.98-2.7"/>
  <path class="cls-2" d="M74.52-38.3c6.75,17.87-2.26,37.83-20.13,44.59-14.3,5.4-30.27-1.81-35.67-16.1-4.32-11.44,1.45-24.21,12.88-28.54,9.15-3.46,19.37,1.16,22.83,10.31,2.77,7.32-.93,15.5-8.25,18.26-5.86,2.21-12.4-.74-14.61-6.6-1.77-4.68.59-9.92,5.28-11.69,3.75-1.42,7.93.47,9.35,4.22,1.13,3-.38,6.35-3.38,7.48-2.4.91-5.08-.3-5.98-2.7"/>
  <path class="cls-2" d="M74.52-38.3c6.75,17.87-2.26,37.83-20.13,44.59-14.3,5.4-30.27-1.81-35.67-16.1-4.32-11.44,1.45-24.21,12.88-28.54,9.15-3.46,19.37,1.16,22.83,10.31,2.77,7.32-.93,15.5-8.25,18.26-5.86,2.21-12.4-.74-14.61-6.6-1.77-4.68.59-9.92,5.28-11.69,3.75-1.42,7.93.47,9.35,4.22,1.13,3-.38,6.35-3.38,7.48-2.4.91-5.08-.3-5.98-2.7"/>
  <path class="cls-2" d="M22.52-38.3C29.27-20.43,20.26-.47,2.39,6.29c-14.3,5.4-30.27-1.81-35.67-16.1-4.32-11.44,1.45-24.21,12.88-28.54,9.15-3.46,19.37,1.16,22.83,10.31,2.77,7.32-.93,15.5-8.25,18.26-5.86,2.21-12.4-.74-14.61-6.6-1.77-4.68.59-9.92,5.28-11.69,3.75-1.42,7.93.47,9.35,4.22,1.13,3-.38,6.35-3.38,7.48-2.4.91-5.08-.3-5.98-2.7"/>
</svg>