<?xml version="1.0" encoding="UTF-8"?>
<svg id="Layer_1" data-name="Layer 1" xmlns="http://www.w3.org/2000/svg" viewBox="0 0 32 32">
  <defs>
    <style>
      .cls-1 {
        fill: #231f20;
      }

      .cls-2 {
        fill: #fff;
      }
    </style>
  </defs>
  <g>
    <path class="cls-2" d="M6.77,7.29c.83-.14,1.55-.59,2.31-1,2.1-1.24,4.55-3.21,7.14-3.21s4.52,1.76,6.55,3c.79.45,1.52.9,2.41,1,1.07,0,2-.79,2.59-1.59,1-1.76,2.9-.21,1.72,1.21-.52.62-1.17,1-1.86,1.38-1.21.62-2.72.86-4,.38-2.31-.76-4.31-2.21-6.65-2.62-.34-.03-.69-.07-1-.03-2.86.24-5.55,2-8.34,2.83-1.86.48-4.07-.17-5.27-1.65-1.1-1.59.97-2.86,1.86-1.65.76,1,1.31,2.1,2.48,2l.07-.03Z"/>
    <path class="cls-2" d="M25.26,29.98v.19c-5.49,0-13.52,0-18.93-.03l-.02-.55c-.05-1.29.84-2.43,2.11-2.67,2.84-.56,6.13-1.79,6.63-4.5.07-.31.5-9.84.69-14.89.03-.83,1.34-.59,1.34,0,0,4.55,0,13.72,0,14.99.02,3.13,3.18,4.08,5.68,4.43,1.5.21,2.59,1.52,2.5,3.03Z"/>
    <path class="cls-2" d="M5.7,10.46s-3.17,9.38-3.34,10.31c2.83,1.07,5.86,1.07,8.51.14-.31-.69-3.58-10.41-3.58-10.41-.07-.21.03-.41.24-.45.17-.07.38,0,.45.21,0,0,4.62,10.24,4.86,10.65-.9,1.96-4,3.65-6,3.69s-4.65-.93-6.31-3.65c.17-.38,4.48-10.65,4.48-10.65.17-.38.76-.17.65.24h0l.03-.07Z"/>
    <path class="cls-2" d="M24.35,10.46s-3.17,9.38-3.34,10.31c2.83,1.07,5.86,1.07,8.51.14-.31-.69-3.58-10.41-3.58-10.41-.07-.21.03-.41.24-.45.17-.07.38,0,.45.21,0,0,4.62,10.24,4.86,10.65-.9,1.96-4,3.65-6,3.69s-4.65-.93-6.31-3.65c.17-.38,4.48-10.65,4.48-10.65.17-.38.76-.17.65.24h0l.03-.07Z"/>
  </g>
  <g>
    <path class="cls-1" d="M6.77,7.29c.83-.14,1.55-.59,2.31-1,2.1-1.24,4.55-3.21,7.14-3.21s4.52,1.76,6.55,3c.79.45,1.52.9,2.41,1,1.07,0,2-.79,2.59-1.59,1-1.76,2.9-.21,1.72,1.21-.52.62-1.17,1-1.86,1.38-1.21.62-2.72.86-4,.38-2.31-.76-4.31-2.21-6.65-2.62-.34-.03-.69-.07-1-.03-2.86.24-5.55,2-8.34,2.83-1.86.48-4.07-.17-5.27-1.65-1.1-1.59.97-2.86,1.86-1.65.76,1,1.31,2.1,2.48,2l.07-.03Z"/>
    <path class="cls-1" d="M25.26,29.98v.19c-5.49,0-13.52,0-18.93-.03l-.02-.55c-.05-1.29.84-2.43,2.11-2.67,2.84-.56,6.13-1.79,6.63-4.5.07-.31.5-9.84.69-14.89.03-.83,1.34-.59,1.34,0,0,4.55,0,13.72,0,14.99.02,3.13,3.18,4.08,5.68,4.43,1.5.21,2.59,1.52,2.5,3.03Z"/>
    <path class="cls-1" d="M5.7,10.46s-3.17,9.38-3.34,10.31c2.83,1.07,5.86,1.07,8.51.14-.31-.69-3.58-10.41-3.58-10.41-.07-.21.03-.41.24-.45.17-.07.38,0,.45.21,0,0,4.62,10.24,4.86,10.65-.9,1.96-4,3.65-6,3.69s-4.65-.93-6.31-3.65c.17-.38,4.48-10.65,4.48-10.65.17-.38.76-.17.65.24h0l.03-.07Z"/>
    <path class="cls-1" d="M24.35,10.46s-3.17,9.38-3.34,10.31c2.83,1.07,5.86,1.07,8.51.14-.31-.69-3.58-10.41-3.58-10.41-.07-.21.03-.41.24-.45.17-.07.38,0,.45.21,0,0,4.62,10.24,4.86,10.65-.9,1.96-4,3.65-6,3.69s-4.65-.93-6.31-3.65c.17-.38,4.48-10.65,4.48-10.65.17-.38.76-.17.65.24h0l.03-.07Z"/>
  </g>
</svg>