<?xml version="1.0" encoding="UTF-8"?>
<svg id="Layer_1" data-name="Layer 1" xmlns="http://www.w3.org/2000/svg" viewBox="0 0 50 50">
  <defs>
    <style>
      .cls-1 {
        fill: #231f20;
        stroke: #231f20;
        stroke-miterlimit: 10;
      }
    </style>
  </defs>
  <path class="cls-1" d="M22.8,48.52c-.82,0-1.54-.48-2.04-1.34-.05-.07-.12-.16-.2-.24-.33-.34-.65-.66-.98-.98-.72-.7-1.46-1.42-2.1-2.24-2.45-3.18-4.39-5.83-6.1-8.33-.88-1.3-1.94-2.52-2.96-3.71-1.48-1.72-3.01-3.5-4.13-5.59-.06-.11-.09-.24-.09-.37v-1.22c0-.27.14-.52.36-.66,1.87-2.92,4.15-5.55,6.34-8.1.85-.99,1.74-2.01,2.58-3.03,2.26-2.74,4.53-5.32,6.46-7.49.14-.16.28-.32.42-.49.75-.89,1.61-1.89,2.98-2.31.07-.02.15-.03.23-.03h1.07c.12,0,.25.03.36.09.43.22.84.48,1.21.79.02.02.05.04.07.06l.99,1.03c1.49,1.55,3.04,3.15,4.49,4.79,2.35,2.67,4.69,5.42,6.96,8.16,1.77,2.14,3.5,4.35,5.19,6.49l.96,1.22c.37.47,1.49,1.9.57,3.62,0,.02,0,.05,0,.07.01.91-.41,1.78-1.14,2.32-.99.87-1.97,1.74-2.96,2.61-1.53,1.35-3.06,2.7-4.6,4.04l-.73.63c-2.76,2.41-5.62,4.91-8.47,7.32-1.09.91-2.25,1.75-3.46,2.5-.42.26-.86.4-1.29.4h0ZM14.21,24.46c3.49,0,6.26.22,8.81.72-.04-1.94-.11-3.88-.19-5.78-.12-3.09-.25-6.27-.19-9.47,0,0-9.53,11.23-12.41,14.62.08.06.11.06.16.06.12,0,.32-.03.57-.06,0,0,.04,0,.05,0,.34-.04.68-.06,1.02-.06h.06c.69-.01,1.4-.02,2.11-.02Z"/>
</svg>