<?xml version="1.0" encoding="UTF-8"?>
<svg id="Layer_1" data-name="Layer 1" xmlns="http://www.w3.org/2000/svg" viewBox="0 0 32 32">
  <defs>
    <style>
      .cls-1 {
        fill: #231f20;
      }

      .cls-2 {
        fill: none;
      }
    </style>
  </defs>
  <path class="cls-1" d="M23.89,13.75c-1.52,1.29-3.84,1-4.99-.7-.87-1.29-.72-3.07.35-4.2.6-.63,1.36-.96,2.13-1.04l-4.28-5.06-5.54,4.69c.19-1.01-.09-2.09-.85-2.91-1.18-1.27-3.22-1.42-4.57-.34-1.49,1.19-1.7,3.37-.47,4.82.68.8,1.66,1.21,2.63,1.19l-5.54,4.69,12.15,14.35,14.35-12.15-4.28-5.06c-.17.64-.53,1.24-1.08,1.71Z"/>
  <path class="cls-2" d="M74.52-38.3c6.75,17.87-2.26,37.83-20.13,44.59-14.3,5.4-30.27-1.81-35.67-16.1-4.32-11.44,1.45-24.21,12.88-28.54,9.15-3.46,19.37,1.16,22.83,10.31,2.77,7.32-.93,15.5-8.25,18.26-5.86,2.21-12.4-.74-14.61-6.6-1.77-4.68.59-9.92,5.28-11.69,3.75-1.42,7.93.47,9.35,4.22,1.13,3-.38,6.35-3.38,7.48-2.4.91-5.08-.3-5.98-2.7"/>
  <path class="cls-2" d="M22.52-38.3C29.27-20.43,20.26-.47,2.39,6.29c-14.3,5.4-30.27-1.81-35.67-16.1-4.32-11.44,1.45-24.21,12.88-28.54,9.15-3.46,19.37,1.16,22.83,10.31,2.77,7.32-.93,15.5-8.25,18.26-5.86,2.21-12.4-.74-14.61-6.6-1.77-4.68.59-9.92,5.28-11.69,3.75-1.42,7.93.47,9.35,4.22,1.13,3-.38,6.35-3.38,7.48-2.4.91-5.08-.3-5.98-2.7"/>
  <path class="cls-2" d="M22.52-38.3C29.27-20.43,20.26-.47,2.39,6.29c-14.3,5.4-30.27-1.81-35.67-16.1-4.32-11.44,1.45-24.21,12.88-28.54,9.15-3.46,19.37,1.16,22.83,10.31,2.77,7.32-.93,15.5-8.25,18.26-5.86,2.21-12.4-.74-14.61-6.6-1.77-4.68.59-9.92,5.28-11.69,3.75-1.42,7.93.47,9.35,4.22,1.13,3-.38,6.35-3.38,7.48-2.4.91-5.08-.3-5.98-2.7"/>
</svg>