<?xml version="1.0" encoding="UTF-8"?>
<svg id="Layer_1" data-name="Layer 1" xmlns="http://www.w3.org/2000/svg" viewBox="0 0 32 32">
  <defs>
    <style>
      .cls-1 {
        fill: #231f20;
      }

      .cls-2 {
        fill: #fff;
      }
    </style>
  </defs>
  <g>
    <path class="cls-2" d="M19.06,24.46c.39,0,1.3.63,1.54.99-.02-1.09-.14-3.14-.14-3.49h1.11c.07.65.2,1.43.67,1.86,1.42,1.33,3.72,1.24,5.56,1.19.04,1.62.1,3.31.1,4.93-1.9.06-3.89.03-5.78-.05-.54.03-1.06-.39-1.12-.91-.01-.2-.07-.41-.29-.69-.68-.85-1.82-1.39-2.94-1.46-1.43-.13-2.99.74-3.75,1.91-.05.11-.08.19-.07.22-.03.51-.55.98-1.07.95-1.71.08-3.53.1-5.25.06,0-1.66.08-3.39.13-5.05,1.68.1,5.03.18,5.43-1.95l.02-.82,5.74-.18.1,2.49Z"/>
    <path class="cls-2" d="M20.5,19.93c-.06-3.16.95-6.88,4.03-8.34,1.73-.87,3.08-.67,4.81-.72l-.11-1.59c-1.09-.04-2.02,0-3.15,0-7.67-.04-7.18,11.08-7.18,11.08l-5.46.15-.63.02v-.71l.11-11.37v-.92s.99-.03.99-.03c5.24-.04,11.03-.27,16.28-.22l.94.03c-.02,1.82.09,3.68.07,5.51-1.48.03-3.16-.21-4.47-.11-3.57.17-5.02,4.07-5.13,7.2l-.02.53h-1.03v-.53h-.03Z"/>
    <path class="cls-2" d="M5.8,12.14s1.4,3.13,4.78,3.45l.35.02v.66l-.35.02c-4.2.15-8.06-4.64-9.76-8.07,1.86,0,9.02.02,10.93.02v3.73l-5.94.17Z"/>
  </g>
  <g>
    <path class="cls-1" d="M19.06,24.46c.39,0,1.3.63,1.54.99-.02-1.09-.14-3.14-.14-3.49h1.11c.07.65.2,1.43.67,1.86,1.42,1.33,3.72,1.24,5.56,1.19.04,1.62.1,3.31.1,4.93-1.9.06-3.89.03-5.78-.05-.54.03-1.06-.39-1.12-.91-.01-.2-.07-.41-.29-.69-.68-.85-1.82-1.39-2.94-1.46-1.43-.13-2.99.74-3.75,1.91-.05.11-.08.19-.07.22-.03.51-.55.98-1.07.95-1.71.08-3.53.1-5.25.06,0-1.66.08-3.39.13-5.05,1.68.1,5.03.18,5.43-1.95l.02-.82,5.74-.18.1,2.49Z"/>
    <path class="cls-1" d="M20.5,19.93c-.06-3.16.95-6.88,4.03-8.34,1.73-.87,3.08-.67,4.81-.72l-.11-1.59c-1.09-.04-2.02,0-3.15,0-7.67-.04-7.18,11.08-7.18,11.08l-5.46.15-.63.02v-.71l.11-11.37v-.92s.99-.03.99-.03c5.24-.04,11.03-.27,16.28-.22l.94.03c-.02,1.82.09,3.68.07,5.51-1.48.03-3.16-.21-4.47-.11-3.57.17-5.02,4.07-5.13,7.2l-.02.53h-1.03v-.53h-.03Z"/>
    <path class="cls-1" d="M5.8,12.14s1.4,3.13,4.78,3.45l.35.02v.66l-.35.02c-4.2.15-8.06-4.64-9.76-8.07,1.86,0,9.02.02,10.93.02v3.73l-5.94.17Z"/>
  </g>
</svg>