<?xml version="1.0" encoding="UTF-8"?>
<svg id="Layer_1" data-name="Layer 1" xmlns="http://www.w3.org/2000/svg" viewBox="0 0 32 32">
  <defs>
    <style>
      .cls-1 {
        fill: #231f20;
      }

      .cls-2 {
        fill: none;
      }
    </style>
  </defs>
  <path class="cls-1" d="M27.14,22.07l-9.33-14.96c-.86-1.38-2.88-1.38-3.74.01l-9.22,14.96c-.9,1.46.15,3.35,1.87,3.35h18.55c1.73,0,2.78-1.9,1.86-3.36ZM14.62,11.65c.3-.38.74-.56,1.33-.56s1.01.19,1.3.56c.28.38.39.86.31,1.45l-.58,5.15c-.05.34-.15.61-.32.8-.17.19-.4.29-.7.29s-.55-.1-.73-.29c-.18-.19-.29-.46-.33-.8l-.6-5.15c-.08-.59.03-1.07.32-1.45ZM17.18,22.92c-.29.31-.7.47-1.22.47s-.94-.16-1.25-.47c-.31-.31-.46-.71-.46-1.2s.15-.87.46-1.17c.31-.3.72-.45,1.25-.45s.93.15,1.22.45c.29.3.44.69.44,1.17s-.15.89-.44,1.2Z"/>
  <path class="cls-2" d="M74.52-38.3c6.75,17.87-2.26,37.83-20.13,44.59-14.3,5.4-30.27-1.81-35.67-16.1-4.32-11.44,1.45-24.21,12.88-28.54,9.15-3.46,19.37,1.16,22.83,10.31,2.77,7.32-.93,15.5-8.25,18.26-5.86,2.21-12.4-.74-14.61-6.6-1.77-4.68.59-9.92,5.28-11.69,3.75-1.42,7.93.47,9.35,4.22,1.13,3-.38,6.35-3.38,7.48-2.4.91-5.08-.3-5.98-2.7"/>
  <path class="cls-2" d="M74.52-38.3c6.75,17.87-2.26,37.83-20.13,44.59-14.3,5.4-30.27-1.81-35.67-16.1-4.32-11.44,1.45-24.21,12.88-28.54,9.15-3.46,19.37,1.16,22.83,10.31,2.77,7.32-.93,15.5-8.25,18.26-5.86,2.21-12.4-.74-14.61-6.6-1.77-4.68.59-9.92,5.28-11.69,3.75-1.42,7.93.47,9.35,4.22,1.13,3-.38,6.35-3.38,7.48-2.4.91-5.08-.3-5.98-2.7"/>
  <path class="cls-2" d="M22.52-38.3C29.27-20.43,20.26-.47,2.39,6.29c-14.3,5.4-30.27-1.81-35.67-16.1-4.32-11.44,1.45-24.21,12.88-28.54,9.15-3.46,19.37,1.16,22.83,10.31,2.77,7.32-.93,15.5-8.25,18.26-5.86,2.21-12.4-.74-14.61-6.6-1.77-4.68.59-9.92,5.28-11.69,3.75-1.42,7.93.47,9.35,4.22,1.13,3-.38,6.35-3.38,7.48-2.4.91-5.08-.3-5.98-2.7"/>
  <path class="cls-2" d="M22.52-38.3C29.27-20.43,20.26-.47,2.39,6.29c-14.3,5.4-30.27-1.81-35.67-16.1-4.32-11.44,1.45-24.21,12.88-28.54,9.15-3.46,19.37,1.16,22.83,10.31,2.77,7.32-.93,15.5-8.25,18.26-5.86,2.21-12.4-.74-14.61-6.6-1.77-4.68.59-9.92,5.28-11.69,3.75-1.42,7.93.47,9.35,4.22,1.13,3-.38,6.35-3.38,7.48-2.4.91-5.08-.3-5.98-2.7"/>
  <path class="cls-2" d="M22.52-38.3C29.27-20.43,20.26-.47,2.39,6.29c-14.3,5.4-30.27-1.81-35.67-16.1-4.32-11.44,1.45-24.21,12.88-28.54,9.15-3.46,19.37,1.16,22.83,10.31,2.77,7.32-.93,15.5-8.25,18.26-5.86,2.21-12.4-.74-14.61-6.6-1.77-4.68.59-9.92,5.28-11.69,3.75-1.42,7.93.47,9.35,4.22,1.13,3-.38,6.35-3.38,7.48-2.4.91-5.08-.3-5.98-2.7"/>
</svg>