<?xml version="1.0" encoding="UTF-8"?>
<svg id="Layer_1" data-name="Layer 1" xmlns="http://www.w3.org/2000/svg" viewBox="0 0 32 32">
  <defs>
    <style>
      .cls-1 {
        fill: #231f20;
      }

      .cls-2 {
        fill: #fff;
      }
    </style>
  </defs>
  <g>
    <path class="cls-2" d="M5.77,28.09c.04-.14.15-.45.19-.58.65-1.41,1.55-2.67,2.43-3.92,2.94-3.98,6.13-7.82,9.98-10.95.31-.24.71.21.4.49-2.42,2.14-4.49,4.69-6.44,7.27-1.21,1.63-2.37,3.29-3.42,5.01-.54.91-1.11,1.81-1.45,2.8-.03.13-.09.28-.13.4-.37,1.01-1.88.52-1.57-.52h0Z"/>
    <path class="cls-2" d="M8.76,21.06c-1.03.13-1.7-1-1.87-1.89-.11-.48-.08-1,0-1.47.24-1.42.82-2.76,1.56-3.99.99-1.65,2.37-3.12,3.99-4.16.8-.52,1.63-.98,2.47-1.41,1.69-.83,3.43-1.54,5.26-2.06,1.48-.37,3.81-1.09,5.24-.21.9.73.71,1.95.63,2.86-.53,3.25-1.78,6.31-3.18,9.28-.13.24-.24.49-.46.68-.69.46-1.47.34-2.21.31-.93-.09-5.84.18-6.74-.05,1.02-2.04,3.64-4.77,5.14-6.19-2.28,1.32-10.9,8.21-9.83,8.3h0Z"/>
    <path class="cls-2" d="M13.58,18.17c1.31,1.68,8.11,1.93,8.01,2.04-1.33,1.62-3.85,3.51-5.87,4.16-2.02.73-4.28.37-6.29.05-.94-.15.16-1.49.16-1.49l4-4.77Z"/>
  </g>
  <g>
    <path class="cls-1" d="M5.77,28.09c.04-.14.15-.45.19-.58.65-1.41,1.55-2.67,2.43-3.92,2.94-3.98,6.13-7.82,9.98-10.95.31-.24.71.21.4.49-2.42,2.14-4.49,4.69-6.44,7.27-1.21,1.63-2.37,3.29-3.42,5.01-.54.91-1.11,1.81-1.45,2.8-.03.13-.09.28-.13.4-.37,1.01-1.88.52-1.57-.52h0Z"/>
    <path class="cls-1" d="M8.76,21.06c-1.03.13-1.7-1-1.87-1.89-.11-.48-.08-1,0-1.47.24-1.42.82-2.76,1.56-3.99.99-1.65,2.37-3.12,3.99-4.16.8-.52,1.63-.98,2.47-1.41,1.69-.83,3.43-1.54,5.26-2.06,1.48-.37,3.81-1.09,5.24-.21.9.73.71,1.95.63,2.86-.53,3.25-1.78,6.31-3.18,9.28-.13.24-.24.49-.46.68-.69.46-1.47.34-2.21.31-.93-.09-5.84.18-6.74-.05,1.02-2.04,3.64-4.77,5.14-6.19-2.28,1.32-10.9,8.21-9.83,8.3h0Z"/>
    <path class="cls-1" d="M13.58,18.17c1.31,1.68,8.11,1.93,8.01,2.04-1.33,1.62-3.85,3.51-5.87,4.16-2.02.73-4.28.37-6.29.05-.94-.15.16-1.49.16-1.49l4-4.77Z"/>
  </g>
</svg>