<?xml version="1.0" encoding="UTF-8"?>
<svg id="Layer_1" data-name="Layer 1" xmlns="http://www.w3.org/2000/svg" viewBox="0 0 32 32">
  <defs>
    <style>
      .cls-1 {
        fill: #231f20;
      }

      .cls-2 {
        fill: #fff;
      }
    </style>
  </defs>
  <g>
    <path class="cls-2" d="M19.47,24.66c.4,0,1.34.65,1.59,1.03-.02-1.12-.15-3.24-.14-3.6h1.15c.07.68.21,1.48.7,1.92,1.47,1.38,3.84,1.28,5.75,1.23.04,1.67.1,3.42.1,5.1-1.96.06-4.02.03-5.98-.05-.55.03-1.1-.4-1.16-.94-.01-.21-.07-.42-.3-.71-.7-.88-1.88-1.44-3.04-1.51-1.48-.13-3.09.77-3.87,1.97-.05.12-.08.2-.07.22-.03.52-.56,1.01-1.11.98-1.77.08-3.65.11-5.42.06.01-1.71.08-3.5.13-5.21,1.74.1,5.19.19,5.61-2.02l.02-.85,5.93-.18.1,2.58Z"/>
    <path class="cls-2" d="M20.96,19.97c-.06-3.26.98-7.11,4.17-8.62,1.79-.9,3.18-.69,4.97-.74l-.12-1.65c-1.13-.04-2.09,0-3.26,0-7.93-.05-7.42,11.45-7.42,11.45l-5.64.16-.65.02v-.73l.11-11.75v-.95s1.02-.03,1.02-.03c5.41-.04,11.4-.28,16.83-.23l.97.03c-.02,1.88.09,3.8.07,5.7-1.53.03-3.26-.22-4.62-.11-3.69.18-5.19,4.21-5.3,7.44l-.02.55h-1.07v-.55h-.03Z"/>
    <path class="cls-2" d="M5.77,11.93s1.45,3.23,4.94,3.56l.36.02v.68l-.36.02c-4.34.15-8.33-4.79-10.09-8.34,1.92,0,9.32.02,11.29.02v3.86l-6.14.17Z"/>
  </g>
  <g>
    <path class="cls-1" d="M19.47,24.66c.4,0,1.34.65,1.59,1.03-.02-1.12-.15-3.24-.14-3.6h1.15c.07.68.21,1.48.7,1.92,1.47,1.38,3.84,1.28,5.75,1.23.04,1.67.1,3.42.1,5.1-1.96.06-4.02.03-5.98-.05-.55.03-1.1-.4-1.16-.94-.01-.21-.07-.42-.3-.71-.7-.88-1.88-1.44-3.04-1.51-1.48-.13-3.09.77-3.87,1.97-.05.12-.08.2-.07.22-.03.52-.56,1.01-1.11.98-1.77.08-3.65.11-5.42.06.01-1.71.08-3.5.13-5.21,1.74.1,5.19.19,5.61-2.02l.02-.85,5.93-.18.1,2.58Z"/>
    <path class="cls-1" d="M20.96,19.97c-.06-3.26.98-7.11,4.17-8.62,1.79-.9,3.18-.69,4.97-.74l-.12-1.65c-1.13-.04-2.09,0-3.26,0-7.93-.05-7.42,11.45-7.42,11.45l-5.64.16-.65.02v-.73l.11-11.75v-.95s1.02-.03,1.02-.03c5.41-.04,11.4-.28,16.83-.23l.97.03c-.02,1.88.09,3.8.07,5.7-1.53.03-3.26-.22-4.62-.11-3.69.18-5.19,4.21-5.3,7.44l-.02.55h-1.07v-.55h-.03Z"/>
    <path class="cls-1" d="M5.77,11.93s1.45,3.23,4.94,3.56l.36.02v.68l-.36.02c-4.34.15-8.33-4.79-10.09-8.34,1.92,0,9.32.02,11.29.02v3.86l-6.14.17Z"/>
  </g>
</svg>