<?xml version="1.0" encoding="UTF-8"?>
<svg id="Layer_1" data-name="Layer 1" xmlns="http://www.w3.org/2000/svg" viewBox="0 0 32 32">
  <defs>
    <style>
      .cls-1 {
        fill: #231f20;
      }

      .cls-2 {
        fill: #fff;
      }
    </style>
  </defs>
  <g>
    <path class="cls-2" d="M15.75,11.47c-2.8,0-4.84-2.01-4.84-4.78s1.9-4.78,4.84-4.78,4.83,1.96,4.83,4.78c0,2.99-2.46,4.78-4.84,4.78ZM15.75,3.98c-1.07,0-2.87.35-2.87,2.71,0,1.87,1.44,2.71,2.87,2.71,1.19,0,2.87-.84,2.87-2.71,0-1.65-1.12-2.71-2.86-2.71Z"/>
    <path class="cls-2" d="M19.27,17.03h-7.17c-.54,0-.98-.46-.98-1.03s.44-1.03.98-1.03h7.17c.54,0,.98.46.98,1.03s-.44,1.03-.98,1.03Z"/>
    <path class="cls-2" d="M15.69,16.63c-.54,0-.98-.46-.98-1.03v-2.16c0-.57.44-1.03.98-1.03s.98.46.98,1.03v2.16c0,.57-.44,1.03-.98,1.03Z"/>
    <path class="cls-2" d="M5.66,17.06c-1.31-.38-2.34-.89-2.34-.89.74,2.91,2.34,4.17,4.54,6.09,4.34,3.77,11.58,3.52,15.9-.18,2.23-1.91,3.84-3.21,4.72-6.1l-2.67,1.64c-.51.24-.91-.49-.48-.83,1.2-.97,4.35-3.51,5.52-4.45-.08.55-.42,2.83-.54,3.3-.79,3.27-4.78,14.44-14.63,14.44S2.5,20.71,1.57,15.6c-.11-.49-.35-2.73-.43-3.26l1.83,1.53c.47.45.96.89,1.45,1.32.5.43,1,.86,1.52,1.22.32.22.08.75-.27.64h0Z"/>
    <path class="cls-2" d="M15.69,26.3c-.54,0-.98-.46-.98-1.03v-5.6c0-.57.44-1.03.98-1.03s.98.46.98,1.03v5.6c0,.57-.44,1.03-.98,1.03Z"/>
  </g>
  <g>
    <path class="cls-1" d="M15.75,11.47c-2.8,0-4.84-2.01-4.84-4.78s1.9-4.78,4.84-4.78,4.83,1.96,4.83,4.78c0,2.99-2.46,4.78-4.84,4.78ZM15.75,3.98c-1.07,0-2.87.35-2.87,2.71,0,1.87,1.44,2.71,2.87,2.71,1.19,0,2.87-.84,2.87-2.71,0-1.65-1.12-2.71-2.86-2.71Z"/>
    <path class="cls-1" d="M19.27,17.03h-7.17c-.54,0-.98-.46-.98-1.03s.44-1.03.98-1.03h7.17c.54,0,.98.46.98,1.03s-.44,1.03-.98,1.03Z"/>
    <path class="cls-1" d="M15.69,16.63c-.54,0-.98-.46-.98-1.03v-2.16c0-.57.44-1.03.98-1.03s.98.46.98,1.03v2.16c0,.57-.44,1.03-.98,1.03Z"/>
    <path class="cls-1" d="M5.66,17.06c-1.31-.38-2.34-.89-2.34-.89.74,2.91,2.34,4.17,4.54,6.09,4.34,3.77,11.58,3.52,15.9-.18,2.23-1.91,3.84-3.21,4.72-6.1l-2.67,1.64c-.51.24-.91-.49-.48-.83,1.2-.97,4.35-3.51,5.52-4.45-.08.55-.42,2.83-.54,3.3-.79,3.27-4.78,14.44-14.63,14.44S2.5,20.71,1.57,15.6c-.11-.49-.35-2.73-.43-3.26l1.83,1.53c.47.45.96.89,1.45,1.32.5.43,1,.86,1.52,1.22.32.22.08.75-.27.64h0Z"/>
    <path class="cls-1" d="M15.69,26.3c-.54,0-.98-.46-.98-1.03v-5.6c0-.57.44-1.03.98-1.03s.98.46.98,1.03v5.6c0,.57-.44,1.03-.98,1.03Z"/>
  </g>
</svg>