<?xml version="1.0" encoding="UTF-8"?>
<svg id="Layer_1" data-name="Layer 1" xmlns="http://www.w3.org/2000/svg" viewBox="0 0 32 32">
  <defs>
    <style>
      .cls-1 {
        fill: #231f20;
      }

      .cls-2 {
        fill: none;
      }
    </style>
  </defs>
  <path class="cls-1" d="M29.04,24.8l-8.43-6.46c1.2-1.65,1.91-3.67,1.91-5.86,0-5.51-4.49-10-10-10S2.53,6.97,2.53,12.48s4.49,10,10,10c2.15,0,4.14-.68,5.78-1.84l6.83,8.08s2.24.92,3.55-.36c1.53-1.49.36-3.55.36-3.55ZM4.87,12.48c0-4.22,3.43-7.65,7.65-7.65s7.65,3.43,7.65,7.65-3.43,7.65-7.65,7.65-7.65-3.43-7.65-7.65Z"/>
  <path class="cls-2" d="M22.52-38.3C29.27-20.43,20.26-.47,2.39,6.29c-14.3,5.4-30.27-1.81-35.67-16.1-4.32-11.44,1.45-24.21,12.88-28.54,9.15-3.46,19.37,1.16,22.83,10.31,2.77,7.32-.93,15.5-8.25,18.26-5.86,2.21-12.4-.74-14.61-6.6-1.77-4.68.59-9.92,5.28-11.69,3.75-1.42,7.93.47,9.35,4.22,1.13,3-.38,6.35-3.38,7.48-2.4.91-5.08-.3-5.98-2.7"/>
</svg>