<?xml version="1.0" encoding="UTF-8"?>
<svg id="Layer_1" data-name="Layer 1" xmlns="http://www.w3.org/2000/svg" viewBox="0 0 32 32">
  <defs>
    <style>
      .cls-1 {
        fill: #231f20;
      }

      .cls-2 {
        fill: #fff;
      }
    </style>
  </defs>
  <g>
    <path class="cls-2" d="M21.99,17.18l-11.49,12.45s-6.49.45-6.83.44c-.05-.73-.15-5.96-.21-6.77l11.6-11.77c.18-.16,3.21,1.65,3.04,1.84l-12.77,14.59,13.74-13.65c.31-.34,3.21,2.48,2.92,2.86h0Z"/>
    <path class="cls-2" d="M23.08,14.3c.59-.02,4.67-.14,5.16-.15v5.62c-.51.02-4.02.23-4.62.26l-.91.05-.05-.8-.3-3.42-5.93-4.96s-4.25-.32-4.69-.31c0-.56-.02-4.17-.02-4.81v-.88s.92.01.92.01c.71,0,4.58.06,5.19.06-.02.42-.23,4.26-.26,4.78l-1.94-.23.34-2.94-2.43-.06-.13,2.5,3.22.32.51-.41,6.09,5.39.12.1.72.45.19,3.42,2.44.09.02-2.54-3.07.08-.57-1.64h0Z"/>
    <path class="cls-2" d="M28.03,3.19c-1.32.14-5.75.62-7.07.76.07.77.19,2.95.25,3.61l-1.92,2.15,3.21,2.86,2.27-2.21,3.76-.16c-.09-1.3-.41-5.71-.5-7.01ZM23.35,8.37l-.44-2.94,3.37-.31.34,3.11-3.28.14Z"/>
  </g>
  <g>
    <path class="cls-1" d="M21.99,17.18l-11.49,12.45s-6.49.45-6.83.44c-.05-.73-.15-5.96-.21-6.77l11.6-11.77c.18-.16,3.21,1.65,3.04,1.84l-12.77,14.59,13.74-13.65c.31-.34,3.21,2.48,2.92,2.86h0Z"/>
    <path class="cls-1" d="M23.08,14.3c.59-.02,4.67-.14,5.16-.15v5.62c-.51.02-4.02.23-4.62.26l-.91.05-.05-.8-.3-3.42-5.93-4.96s-4.25-.32-4.69-.31c0-.56-.02-4.17-.02-4.81v-.88s.92.01.92.01c.71,0,4.58.06,5.19.06-.02.42-.23,4.26-.26,4.78l-1.94-.23.34-2.94-2.43-.06-.13,2.5,3.22.32.51-.41,6.09,5.39.12.1.72.45.19,3.42,2.44.09.02-2.54-3.07.08-.57-1.64h0Z"/>
    <path class="cls-1" d="M28.03,3.19c-1.32.14-5.75.62-7.07.76.07.77.19,2.95.25,3.61l-1.92,2.15,3.21,2.86,2.27-2.21,3.76-.16c-.09-1.3-.41-5.71-.5-7.01ZM23.35,8.37l-.44-2.94,3.37-.31.34,3.11-3.28.14Z"/>
  </g>
</svg>