<?xml version="1.0" encoding="UTF-8"?>
<svg id="Layer_1" data-name="Layer 1" xmlns="http://www.w3.org/2000/svg" viewBox="0 0 32 32">
  <defs>
    <style>
      .cls-1 {
        fill: #231f20;
      }
    </style>
  </defs>
  <path class="cls-1" d="M18.28,17.99c-.18-.26-.34-.55-.42-.89-.09-.4.08-.78.37-1.12.62-.3,1.17-.72,1.66-1.23.03-.02.06-.03.06-.03h-.03c1.18-1.25,1.92-3.04,1.92-5.05,0-3.77-2.61-6.82-5.83-6.82s-5.83,3.06-5.83,6.82c0,3.03,1.68,5.59,4.01,6.48.16.24.25.5.19.77-.08.33-.29.7-.51,1.04-4.97,1.05-8.71,5.66-8.71,11.19h21.7c0-5.48-3.68-10.06-8.58-11.16Z"/>
</svg>