<?xml version="1.0" encoding="UTF-8"?>
<svg id="Layer_1" data-name="Layer 1" xmlns="http://www.w3.org/2000/svg" viewBox="0 0 32 32">
  <defs>
    <style>
      .cls-1 {
        fill: #231f20;
      }

      .cls-2 {
        fill: none;
      }
    </style>
  </defs>
  <rect class="cls-2" x=".25" y="0" width="31.55" height="32"/>
  <path class="cls-1" d="M25.07,22.13c-.73-.71-1.46-1.42-2.2-2.13-1.45-1.41-2.9-2.81-4.34-4.22,1.04-1.11,2.11-2.19,3.21-3.23.76-.71,1.52-1.42,2.28-2.13.69-.64,1.59-1.26,2.09-2.09.53-.89.2-1.93-.71-2.32-.86-.37-1.85-.12-2.59.44-.72.54-1.26,1.29-1.86,1.98-.65.73-1.34,1.42-2.04,2.1-.97.93-1.95,1.84-2.89,2.79-.22-.24-.45-.48-.68-.73-1.57-1.71-3.1-3.46-4.66-5.19-.47-.53-.94-.84-1.55-.76-.77-.35-1.66-.27-2.32.34-.63.59-.98,1.66-.38,2.42.18.23.44.37.71.4,2.3,1.94,4.63,3.85,6.89,5.84-1.57,1.39-3.14,2.78-4.76,4.1-1,.82-2.04,1.58-3.05,2.39-.67.54-.71,1.03-.48,1.61.03,1.09.99,2.04,2,2,.67-.03,1.16-.49,1.63-.94.57-.53,1.14-1.06,1.7-1.59,1.73-1.62,3.46-3.24,5.19-4.86,1.1,1.06,2.18,2.14,3.23,3.25.66.7,1.31,1.41,1.95,2.12.56.63,1.09,1.34,1.76,1.85.61.47,1.38.65,2.09.35.67-.28,1.16-.92,1.12-1.71-.04-.92-.78-1.52-1.36-2.08Z"/>
</svg>